<?xml version="1.0" encoding="utf-8"?>
<!-- Generator: Adobe Illustrator 15.1.0, SVG Export Plug-In . SVG Version: 6.00 Build 0)  -->
<!DOCTYPE svg PUBLIC "-//W3C//DTD SVG 1.1//EN" "http://www.w3.org/Graphics/SVG/1.1/DTD/svg11.dtd">
<svg version="1.1" id="Layer_1" xmlns="http://www.w3.org/2000/svg" xmlns:xlink="http://www.w3.org/1999/xlink" x="0px" y="0px"
	 width="35px" height="35px" viewBox="0 0 35 35" enable-background="new 0 0 35 35" xml:space="preserve">
<path fill="#DEDDDD" d="M17.342,34.008c-9.434,0-17.109-7.676-17.109-17.109c0-7.33,4.67-13.836,11.619-16.193
	c0.363-0.121,0.764-0.029,1.031,0.242c0.27,0.27,0.359,0.67,0.236,1.031c-0.557,1.611-0.84,3.27-0.84,4.928
	c0,8.33,6.779,15.107,15.109,15.107c1.635,0,3.266-0.271,4.848-0.809c0.363-0.119,0.762-0.029,1.029,0.242
	c0.27,0.27,0.361,0.67,0.236,1.031C31.121,29.375,24.627,34.008,17.342,34.008 M10.66,3.357c-5.111,2.518-8.428,7.738-8.428,13.541
	c0,8.33,6.777,15.109,15.109,15.109c5.766,0,10.971-3.287,13.502-8.354c-1.141,0.238-2.297,0.359-3.455,0.359
	c-9.434,0-17.109-7.677-17.109-17.107C10.279,5.717,10.406,4.531,10.66,3.357"/>
</svg>
