<?xml version="1.0" encoding="utf-8"?>
<!-- Generator: Adobe Illustrator 15.1.0, SVG Export Plug-In . SVG Version: 6.00 Build 0)  -->
<!DOCTYPE svg PUBLIC "-//W3C//DTD SVG 1.1//EN" "http://www.w3.org/Graphics/SVG/1.1/DTD/svg11.dtd">
<svg version="1.1" id="Layer_1" xmlns="http://www.w3.org/2000/svg" xmlns:xlink="http://www.w3.org/1999/xlink" x="0px" y="0px"
	 width="50px" height="50px" viewBox="0 0 50 50" enable-background="new 0 0 50 50" xml:space="preserve">
<path fill="#DEDDDD" d="M36.576,32.377H9.968c-3.861,0-7.002-3.142-7.002-7.002c0-3.842,3.112-6.972,6.949-7.001
	c0.54-6.739,6.146-12.004,12.957-12.004c4.611,0,8.813,2.408,11.158,6.338c0.836-0.223,1.69-0.336,2.547-0.336
	c5.516,0,10.002,4.487,10.002,10.003C46.578,27.89,42.092,32.377,36.576,32.377 M9.968,20.374c-2.758,0-5.002,2.244-5.002,5.001
	c0,2.758,2.244,5.002,5.002,5.002h26.608c4.412,0,8.002-3.59,8.002-8.002c0-4.413-3.59-8.003-8.002-8.003
	c-0.906,0-1.812,0.16-2.688,0.475l-0.825,0.296l-0.402-0.781c-1.897-3.696-5.647-5.992-9.789-5.992
	c-6.067,0-11.004,4.937-11.004,11.004v1.159l-1.142-0.095C10.477,20.4,10.227,20.374,9.968,20.374"/>
<path fill="#63C9E0" d="M11.496,36.555l-3.072,3.072c-0.391,0.391-0.391,1.024,0,1.414c0.195,0.196,0.451,0.293,0.707,0.293
	c0.256,0,0.511-0.097,0.707-0.293l3.072-3.072c0.391-0.391,0.391-1.022,0-1.414C12.519,36.164,11.887,36.164,11.496,36.555"/>
<path fill="#63C9E0" d="M23.639,36.555l-3.072,3.072c-0.391,0.391-0.391,1.024,0,1.414c0.195,0.196,0.451,0.293,0.707,0.293
	c0.256,0,0.511-0.097,0.707-0.293l3.072-3.072c0.391-0.391,0.391-1.022,0-1.414C24.662,36.164,24.03,36.164,23.639,36.555"/>
<path fill="#63C9E0" d="M37.195,36.555c-0.391-0.391-1.023-0.391-1.414,0l-3.072,3.072c-0.391,0.391-0.391,1.024,0,1.414
	c0.195,0.196,0.451,0.293,0.707,0.293s0.512-0.097,0.707-0.293l3.072-3.072C37.586,37.578,37.586,36.946,37.195,36.555"/>
</svg>
