<svg width="51" height="51" viewBox="0 0 51 51" xmlns="http://www.w3.org/2000/svg"><title>Shape</title><path d="M46.238 40.31l-9.75-9.75c1.7-2.747 2.725-5.954 2.725-9.42 0-9.957-8.07-18.028-18.027-18.028S3.158 11.182 3.158 21.14c0 9.956 8.07 18.027 18.028 18.027 3.466 0 6.672-1.026 9.418-2.72l9.752 9.748c1.625 1.625 4.257 1.625 5.882 0s1.625-4.26 0-5.885zm-25.052-6.69c-6.893 0-12.48-5.588-12.48-12.48s5.587-12.48 12.48-12.48c6.892 0 12.48 5.588 12.48 12.48s-5.588 12.48-12.48 12.48z" fill="#DDD" fill-rule="evenodd"/></svg>