<?xml version="1.0" encoding="utf-8"?>
<!-- Generator: Adobe Illustrator 15.1.0, SVG Export Plug-In . SVG Version: 6.00 Build 0)  -->
<!DOCTYPE svg PUBLIC "-//W3C//DTD SVG 1.1//EN" "http://www.w3.org/Graphics/SVG/1.1/DTD/svg11.dtd">
<svg version="1.1" id="Layer_1" xmlns="http://www.w3.org/2000/svg" xmlns:xlink="http://www.w3.org/1999/xlink" x="0px" y="0px"
	 width="44px" height="26px" viewBox="0 0 44 26" enable-background="new 0 0 44 26" xml:space="preserve">
<path fill="#DEDDDD" d="M33.576,26.004H6.969c-3.861,0-7.003-3.141-7.003-7.002c0-3.84,3.108-6.969,6.941-7.002
	C7.42,5.295,13.039-0.004,19.872-0.004c4.611,0,8.813,2.408,11.158,6.338c0.836-0.223,1.69-0.336,2.547-0.336
	c5.517,0,10.004,4.487,10.004,10.002C43.58,21.518,39.093,26.004,33.576,26.004 M6.969,14c-2.759,0-5.003,2.244-5.003,5.002
	s2.244,5.002,5.003,5.002h26.607c4.414,0,8.004-3.59,8.004-8.004c0-4.412-3.59-8.002-8.004-8.002c-0.906,0-1.812,0.16-2.688,0.475
	l-0.825,0.296L29.66,7.988c-1.897-3.696-5.647-5.992-9.789-5.992C13.805,1.996,8.869,6.933,8.869,13v1.158l-1.142-0.094
	C7.478,14.027,7.227,14,6.969,14"/>
</svg>
